# xmcd CD database file generated by OrangeCD 6.4
#
# Track frame offsets:
#	150
#	10587
#	34089
#	52344
#	63795
#	84799
#	108858
#	123139
#	141542
#	159816
#	191785
#
# Disc length: 2824 seconds
#
# Revision: 0
# Processed by: cddbd v1.5.2PL0 Copyright (c) Steve Scherf et al.
# Submitted via: OrangeCD 6.4
#
DISCID=850b060b
DTITLE=Woodpecker! - Thanks Anyway
DYEAR=2012
DGENRE=
TTITLE0=Every Boy In New York
TTITLE1=Old Photos Of Coney Island In The Queens Museum V. Coney Island This Af
TTITLE1=ternoon
TTITLE2=Movie People
TTITLE3=Married To The Movies
TTITLE4=Matt and Ben
TTITLE5=Paperbacks With Paragraphs Underlined
TTITLE6=The Processional
TTITLE7=Scrabble Travel
TTITLE8=If You See Something...
TTITLE9=A GH1 With A Pancake Lens And Whatever Else We Lost That Day
TTITLE10=Black Lodge
EXTD=
EXTT0=
EXTT1=
EXTT2=
EXTT3=
EXTT4=
EXTT5=
EXTT6=
EXTT7=
EXTT8=
EXTT9=
EXTT10=
PLAYORDER=
